<?xml version="1.0" encoding="iso-8859-1"?>
<!-- Generator: Adobe Illustrator 19.0.0, SVG Export Plug-In . SVG Version: 6.00 Build 0)  -->
<svg version="1.1" id="Capa_1" xmlns="http://www.w3.org/2000/svg" xmlns:xlink="http://www.w3.org/1999/xlink" x="0px" y="0px"
	 viewBox="0 0 512 512" style="enable-background:new 0 0 512 512;" xml:space="preserve">
<path style="fill:#FFE6C3;" d="M445.649,447.863l-1.828-3.372c-29.24-53.933-46.365-113.594-50.182-174.824l0,0
	c-1.83-29.365-7.87-58.315-17.932-85.962l-4.487-12.327c-10.907-29.968-36.593-50.281-65.83-55.717
	c-37.213,20.168-55.052,65.071-40.14,106.04l1.338,3.676c6.2,17.034,13.441,33.672,21.681,49.818l0,0
	C324.45,346.089,378.935,405.605,445.649,447.863z"/>
<g>
	<path style="fill:#A5DC69;" d="M181.409,57.799c1.692-2.784,2.666-6.052,2.666-9.548c0-10.17-8.244-18.414-18.414-18.414
		c-0.17,0-0.338,0.008-0.507,0.013c-0.863-1.44-1.913-2.8-3.154-4.041c-4.465-4.465-10.45-6.477-16.289-6.049
		c-1.298-1.768-2.839-3.346-4.565-4.696c-3.069,4.017-4.895,9.033-4.895,14.478c0,3.948,0.964,7.668,2.661,10.949
		c-1.692,3.015-2.661,6.49-2.661,10.193c0,9.406,6.225,17.355,14.779,19.96c-0.014,0.3-0.023,0.601-0.023,0.904
		c0,10.17,8.244,18.414,18.414,18.414c4.24,0,8.143-1.437,11.256-3.845c0.2,0.167,0.416,0.316,0.622,0.477
		c3.064-4.015,4.887-9.027,4.887-14.467C186.186,66.75,184.408,61.789,181.409,57.799z"/>
	<path style="fill:#A5DC69;" d="M316.601,44.525c-1.796-3.566-4.414-6.442-7.505-8.524c0.043-3.981-0.833-8.032-2.748-11.833
		c-0.079-0.158-0.166-0.309-0.248-0.464c-1.121,0.381-2.231,0.839-3.318,1.386c-7.61,3.833-12.49,10.929-13.805,18.734
		c-5.83,2.419-10.617,7.259-12.751,13.724c-0.593,1.797-0.944,3.615-1.077,5.421c-0.165,0.077-0.331,0.151-0.494,0.233
		c-9.792,4.932-13.733,16.868-8.801,26.661c1.695,3.366,4.218,6.04,7.197,7.901c-0.952,5.297-0.258,10.935,2.349,16.112
		c0.079,0.158,0.166,0.309,0.248,0.464c1.121-0.381,2.231-0.839,3.318-1.386c5.607-2.824,9.731-7.42,12.041-12.765
		c4.165,0.81,8.62,0.301,12.703-1.756c9.792-4.932,13.733-16.868,8.801-26.66c-0.147-0.292-0.301-0.578-0.461-0.86
		C319.024,64.255,321.163,53.582,316.601,44.525z"/>
</g>
<g>
	<path id="SVGCleanerId_0" style="fill:#FFFFFF;" d="M192.725,96h-27.269c-26.444,0-51.481,11.912-68.163,32.431l0,0
		c-12.803,15.747-19.758,35.441-19.685,55.735l0.354,97.847c0.227,62.67-9.656,124.966-29.267,184.489L36.999,502l5.836-3.668
		c79.424-49.912,141.236-123.428,176.771-210.241l0.184-0.451c16.676-40.741,27.23-83.726,31.319-127.557l0,0
		c1.61-17.262-4.501-34.352-16.693-46.679l0,0C223.402,102.267,208.389,96,192.725,96z"/>
</g>
<g>
	<path id="SVGCleanerId_0_1_" style="fill:#FFFFFF;" d="M192.725,96h-27.269c-26.444,0-51.481,11.912-68.163,32.431l0,0
		c-12.803,15.747-19.758,35.441-19.685,55.735l0.354,97.847c0.227,62.67-9.656,124.966-29.267,184.489L36.999,502l5.836-3.668
		c79.424-49.912,141.236-123.428,176.771-210.241l0.184-0.451c16.676-40.741,27.23-83.726,31.319-127.557l0,0
		c1.61-17.262-4.501-34.352-16.693-46.679l0,0C223.402,102.267,208.389,96,192.725,96z"/>
</g>
<g>
	<path id="SVGCleanerId_0_2_" style="fill:#FFFFFF;" d="M192.725,96h-27.269c-26.444,0-51.481,11.912-68.163,32.431l0,0
		c-12.803,15.747-19.758,35.441-19.685,55.735l0.354,97.847c0.227,62.67-9.656,124.966-29.267,184.489L36.999,502l5.836-3.668
		c79.424-49.912,141.236-123.428,176.771-210.241l0.184-0.451c16.676-40.741,27.23-83.726,31.319-127.557l0,0
		c1.61-17.262-4.501-34.352-16.693-46.679l0,0C223.402,102.267,208.389,96,192.725,96z"/>
</g>
<path d="M87.894,251.258c0-5.522-4.477-10-10-10h-0.005c-5.523,0-9.998,4.478-9.998,10s4.479,10,10.002,10
	S87.894,256.78,87.894,251.258z"/>
<path d="M146.196,294.5c-5.523,0-10,4.478-10,10s4.477,10,10,10h20.652c5.523,0,10-4.478,10-10s-4.477-10-10-10H146.196z"/>
<path d="M320.742,289.174c-2.761-4.783-8.878-6.422-13.66-3.66l-17.886,10.326c-4.783,2.762-6.422,8.877-3.66,13.66
	c1.852,3.208,5.213,5.002,8.669,5.002c1.696,0,3.416-0.433,4.991-1.342l17.886-10.326
	C321.865,300.072,323.504,293.957,320.742,289.174z"/>
<path d="M314.009,216.326c-4.783,2.762-6.421,8.878-3.66,13.66c1.853,3.209,5.213,5.002,8.669,5.002
	c1.696,0,3.417-0.433,4.991-1.342l17.886-10.327c4.783-2.762,6.421-8.878,3.66-13.66c-2.762-4.784-8.877-6.422-13.661-3.66
	L314.009,216.326z"/>
<path d="M325.889,368.98c1.696,0,3.416-0.433,4.991-1.342l17.886-10.326c4.783-2.762,6.422-8.877,3.66-13.66
	s-8.877-6.423-13.66-3.66l-17.886,10.326c-4.783,2.762-6.422,8.877-3.66,13.66C319.071,367.187,322.433,368.98,325.889,368.98z"/>
<path d="M197.952,213.144c5.523,0,10-4.478,10-10s-4.477-10-10-10h-20.653c-5.523,0-10,4.478-10,10s4.477,10,10,10H197.952z"/>
<path d="M135.212,224.325h-16.804c-5.523,0-10,4.478-10,10s4.477,10,10,10h16.804c5.523,0,10-4.478,10-10
	S140.735,224.325,135.212,224.325z"/>
<path d="M344.991,147.771c1.964,2.045,4.587,3.074,7.215,3.074c2.49,0,4.985-0.925,6.924-2.786
	c3.984-3.825,4.113-10.155,0.289-14.14l-0.178-0.184c-3.845-3.964-10.176-4.062-14.14-0.215c-3.964,3.845-4.061,10.176-0.215,14.141
	L344.991,147.771z"/>
<path d="M483.79,497.233l-31.179-57.509c-3.588-6.618-6.992-13.346-10.211-20.167c5.351-0.05,9.747-4.323,9.897-9.717
	c0.154-5.521-4.197-10.121-9.718-10.274l-9.075-0.252c-12.336-30.261-21.104-62.063-26.022-94.355l6.466,2.232
	c1.081,0.373,2.182,0.551,3.264,0.551c4.146,0,8.022-2.6,9.452-6.739c1.803-5.22-0.968-10.913-6.188-12.716l-15.747-5.438
	c-0.446-4.598-0.822-9.2-1.109-13.805c-1.891-30.336-8.121-60.199-18.516-88.76l-4.487-12.327c-1.889-5.19-7.626-7.869-12.817-5.977
	c-5.189,1.889-7.865,7.627-5.977,12.816l4.487,12.327c9.74,26.761,15.577,54.741,17.349,83.165c0.13,2.083,0.278,4.165,0.439,6.246
	c-3.912,0.241-7.483,2.781-8.842,6.716c-1.803,5.22,0.968,10.913,6.188,12.716l4.82,1.664
	c4.466,35.002,13.266,69.573,26.056,102.512c-2.96,1.666-5.003,4.798-5.104,8.441c-0.154,5.521,4.197,10.121,9.718,10.274
	l3.202,0.089c4.571,10.305,9.535,20.423,14.894,30.308l16.431,30.307l-13.985-6.735c-10.08-4.855-19.948-10.115-29.595-15.736
	v-4.759c0-5.522-4.477-10-10-10c-3.172,0-5.993,1.481-7.825,3.784c-14.631-9.507-28.672-19.889-42.04-31.071l0.758-6.186
	c0.671-5.482-3.228-10.471-8.71-11.142c-3.224-0.398-6.268,0.795-8.373,2.954c-37.307-34.5-68.607-75.473-91.806-120.928
	c-1.22-2.389-2.418-4.813-3.599-7.239c12.892-35.965,21.225-73.375,24.78-111.494c0.951-10.194-0.384-20.299-3.764-29.669
	c1.963-0.906,3.961-1.747,5.998-2.488c18.086-6.583,37.837-6.165,55.612,1.176c5.105,2.111,10.952-0.319,13.061-5.425
	c2.108-5.104-0.32-10.951-5.425-13.06c-5.4-2.23-10.947-3.942-16.572-5.157c6.229-3.672,10.866-9.401,13.154-16.332
	c1.883-5.703,2.008-11.703,0.422-17.358c6.448-9.587,7.368-21.979,1.982-32.675c-1.709-3.393-4.004-6.458-6.756-9.048
	c-0.53-3.926-1.712-7.765-3.497-11.309C306.416,2.068,284.884-5.04,267.284,3.826c-8.539,4.3-14.975,11.895-17.909,20.884
	c-6.396,3.992-11.249,10.11-13.645,17.37c-0.256,0.774-0.482,1.559-0.679,2.351c-5.053,3.649-8.823,8.777-10.814,14.812
	c-2.5,7.571-1.901,15.664,1.686,22.785c1.473,2.926,3.407,5.573,5.715,7.847c-0.013,3.072,0.387,6.117,1.164,9.085
	c-10.705-7.672-23.532-12.218-36.741-12.874l19.178-19.177c3.905-3.905,3.906-10.237,0-14.143c-3.906-3.903-10.237-3.903-14.142,0
	l-7.177,7.177c-0.375-0.97-0.783-1.929-1.248-2.863c0.925-2.834,1.402-5.813,1.402-8.827c0-14.024-10.213-25.709-23.592-28.005
	c-0.453-0.519-0.924-1.021-1.411-1.509c-5.074-5.073-11.701-8.176-18.735-8.88C144.036,3.612,135.432,0,126.459,0
	C107.78,0,92.584,15.196,92.584,33.875c0,3.675,0.608,7.343,1.778,10.82c-1.171,3.302-1.778,6.799-1.778,10.321
	c0,11.262,5.957,21.295,15.361,26.711c1.388,6.611,5.085,12.379,10.199,16.43c-10.833,5.988-20.562,14.063-28.612,23.964
	c-14.22,17.491-22.007,39.538-21.925,62.08l0.041,11.35c0.02,5.511,4.493,9.964,9.999,9.964c0.012,0,0.025,0,0.037,0
	c5.523-0.02,9.984-4.514,9.964-10.036l-0.041-11.35c-0.031-8.583,1.387-17.071,4.098-25.119c0.184,0.01,0.366,0.028,0.552,0.028
	h20.652c5.523,0,10-4.478,10-10s-4.477-10-10-10h-11.091c1.03-1.464,2.098-2.905,3.232-4.3C119.901,116.475,141.918,106,165.456,106
	h27.269c12.903,0,25.508,5.262,34.582,14.437c10.138,10.251,15.185,24.363,13.846,38.719c-4,42.885-14.301,84.839-30.614,124.692
	l-0.187,0.455c-10.347,25.278-22.88,49.294-37.409,71.866c-3.246-2.864-8.106-3.384-11.949-0.957
	c-4.669,2.949-6.064,9.126-3.115,13.795l3.068,4.857c-13.897,19.426-29.361,37.648-46.26,54.537
	c-0.262,0.197-1.532,1.417-1.864,1.84c-17.632,17.411-36.795,33.389-57.384,47.752l2.755-8.362
	c19.424-58.955,28.277-110.298,29.601-171.676c0.119-5.521-4.26-10.095-9.782-10.214c-5.492-0.088-10.095,4.261-10.213,9.782
	c-0.21,9.758-0.623,19.249-1.24,28.558l-14.324,6.435c-5.038,2.264-7.288,8.182-5.024,13.22c1.666,3.708,5.31,5.905,9.127,5.905
	c1.37,0,2.762-0.283,4.092-0.881l4.15-1.864c-4.142,38.44-12.264,74.661-25.382,114.477l-11.696,35.498
	c-1.32,4.004,0.015,8.406,3.335,11.004c1.802,1.41,3.979,2.125,6.164,2.125c1.841,0,3.688-0.507,5.32-1.533l5.836-3.668
	c25.923-16.291,50.046-35.064,72.126-56.067l5.328,5.796c1.972,2.146,4.664,3.232,7.365,3.232c2.418,0,4.844-0.872,6.765-2.638
	c4.066-3.738,4.332-10.063,0.595-14.13l-5.858-6.373c7.194-7.467,14.159-15.171,20.855-23.135
	c5.902-7.019,11.578-14.203,17.033-21.538l1.511,2.393c1.903,3.013,5.147,4.661,8.464,4.661c1.825,0,3.673-0.499,5.331-1.546
	c4.669-2.949,6.064-9.126,3.115-13.795l-5.93-9.389c16.294-24.213,30.245-49.93,41.691-76.895
	c21.75,40.478,49.411,77.25,82.326,109.415c5.846,5.712,11.846,11.24,17.97,16.611l-1.947,15.898
	c-0.671,5.482,3.228,10.471,8.71,11.142c0.413,0.051,0.823,0.075,1.229,0.075c4.98,0,9.292-3.716,9.913-8.785l0.382-3.118
	c13.667,10.771,27.93,20.743,42.751,29.865V483c0,5.522,4.477,10,10,10s10-4.478,10-10v-2.926
	c6.871,3.759,13.837,7.365,20.917,10.775l41.863,20.161c1.385,0.667,2.867,0.99,4.336,0.99c2.676,0,5.31-1.073,7.242-3.101
	C485.231,505.759,485.858,501.048,483.79,497.233z M112.585,55.017c0-1.883,0.465-3.666,1.382-5.301
	c1.646-2.934,1.707-6.498,0.162-9.486c-1.024-1.979-1.543-4.118-1.543-6.354c0-7.65,6.224-13.875,13.875-13.875
	c4.462,0,8.542,2.07,11.192,5.679c2.038,2.775,5.357,4.303,8.792,4.055c3.158-0.247,6.253,0.915,8.485,3.146
	c0.634,0.633,1.188,1.343,1.647,2.11c1.85,3.086,5.194,4.936,8.81,4.856l0.275-0.01c4.639,0,8.414,3.774,8.414,8.414
	c0,1.544-0.419,3.051-1.212,4.355c-2.124,3.495-1.905,7.931,0.552,11.2c1.813,2.412,2.771,5.289,2.771,8.319
	c0,2.196-0.526,4.266-1.438,6.113c-7.216-12.937-19.025-27.268-29.828-33.384c-4.806-2.721-10.908-1.031-13.628,3.775
	c-2.721,4.807-1.03,10.908,3.776,13.629c6.369,3.605,14.217,12.752,19.794,21.567c-0.542-0.348-1.026-0.706-1.437-1.049
	c-1.853-1.55-4.132-2.328-6.414-2.328c-2.156,0-4.314,0.694-6.119,2.091c-1.035,0.801-2.766,1.755-5.137,1.755
	c-4.64,0-8.414-3.774-8.414-8.414c0-0.14,0.004-0.278,0.011-0.416c0.224-4.577-2.692-8.72-7.076-10.055
	C115.748,64.031,112.585,59.757,112.585,55.017z M243.229,65.511c0.825-2.498,2.573-4.526,4.957-5.725l0.208-0.096
	c3.273-1.535,5.463-4.716,5.728-8.321c0.075-1.026,0.277-2.042,0.6-3.02c1.138-3.447,3.721-6.226,7.088-7.623
	c3.179-1.319,5.456-4.181,6.027-7.575c0.844-5.008,3.921-9.187,8.442-11.463c2.265-1.141,4.677-1.682,7.055-1.682
	c5.761,0,11.32,3.172,14.083,8.658c1.142,2.267,1.707,4.698,1.679,7.227c-0.036,3.364,1.622,6.521,4.412,8.401
	c1.788,1.205,3.188,2.796,4.162,4.729c2.452,4.869,1.414,10.896-2.524,14.655c-3.313,3.163-4.054,8.173-1.798,12.159
	c0.08,0.141,0.157,0.283,0.232,0.432c1.184,2.351,1.381,5.021,0.557,7.521c-0.825,2.499-2.574,4.527-4.925,5.712
	c-2.479,1.25-4.792,1.163-6.297,0.87c-4.609-0.894-9.224,1.537-11.087,5.849c-1.09,2.521-2.761,4.644-4.895,6.261
	c1.132-14.458,5.934-33.133,12.375-41.965c3.254-4.462,2.275-10.718-2.187-13.972c-4.462-3.255-10.717-2.275-13.972,2.187
	c-9.055,12.415-14.951,34.926-16.206,52.992c-1.449-1.284-2.69-2.847-3.613-4.678c-1.546-3.07-2.043-6.475-1.438-9.846
	c0.723-4.024-1.077-8.084-4.545-10.25c-1.518-0.948-2.75-2.303-3.563-3.917C242.601,70.681,242.403,68.01,243.229,65.511z"/>
<g>
</g>
<g>
</g>
<g>
</g>
<g>
</g>
<g>
</g>
<g>
</g>
<g>
</g>
<g>
</g>
<g>
</g>
<g>
</g>
<g>
</g>
<g>
</g>
<g>
</g>
<g>
</g>
<g>
</g>
</svg>
