<?xml version="1.0" encoding="iso-8859-1"?>
<!-- Generator: Adobe Illustrator 19.0.0, SVG Export Plug-In . SVG Version: 6.00 Build 0)  -->
<svg version="1.1" id="Capa_1" xmlns="http://www.w3.org/2000/svg" xmlns:xlink="http://www.w3.org/1999/xlink" x="0px" y="0px"
	 viewBox="0 0 512.001 512.001" style="enable-background:new 0 0 512.001 512.001;" xml:space="preserve">
<g>
	<path style="fill:#E68CBE;" d="M78.072,326.811c0,8.755,1.505,17.157,4.26,24.969c18.674-0.687,37.554,5.552,52.465,18.717
		c25.909-11.861,43.919-37.996,43.919-68.354c0-19.303-7.284-36.901-19.245-50.21c-2.061-0.17-4.139-0.278-6.243-0.278
		C111.721,251.655,78.072,285.303,78.072,326.811z"/>
	<path style="fill:#E68CBE;" d="M252.698,346.699c-28.864,1.317-53.47,18.918-64.875,43.831
		c20.031,22.689,24.032,54.567,11.99,80.927c3.999,4.533,8.538,8.576,13.512,12.039c39.89-1.821,71.674-34.729,71.674-75.068
		C285,382.85,272.214,360.274,252.698,346.699z"/>
	<path style="fill:#E68CBE;" d="M127.673,139.805c-23.805,23.805-28.299,59.604-13.49,87.942
		c11.804,1.674,22.726,6.084,32.101,12.576c14.864-2.505,29.122-9.471,40.592-20.942c27.576-27.576,29.238-71.248,4.995-100.771
		C169.142,115.248,145.168,122.309,127.673,139.805z"/>
	<path style="fill:#E68CBE;" d="M271.818,204.407c-17.034,1.457-33.668,8.688-46.702,21.724
		c-11.518,11.518-18.495,25.847-20.973,40.777c8.089,11.989,12.813,26.435,12.813,41.986c0,4.216-0.359,8.346-1.027,12.373
		c2.654,3.931,5.707,7.673,9.186,11.152c1.127,1.127,2.292,2.193,3.473,3.23c4.51,1.16,8.854,2.727,12.996,4.662
		c2.143-0.187,4.311-0.287,6.503-0.287c6.657,0,13.107,0.878,19.252,2.506c9.407-3.658,18.23-9.266,25.825-16.862
		c29.35-29.35,29.35-76.937,0-106.288C286.786,213.003,279.544,208.014,271.818,204.407z"/>
	<path style="fill:#E68CBE;" d="M266.471,139.788c-8.219-8.219-17.87-14.126-28.147-17.737c-3.584,0.447-7.143,1.142-10.645,2.105
		c16.339,21.236,19.789,49.194,10.342,73.262c9.117-0.238,18.268,1.165,26.97,4.226c7.607-0.947,15.327-0.732,22.882,0.646
		C290.651,180.068,283.532,156.849,266.471,139.788z"/>
	<path style="fill:#E68CBE;" d="M372.759,246.075c-7.437-7.437-16.045-12.987-25.23-16.651c-4.345,0.41-8.661,1.188-12.897,2.352
		c16.033,20.839,19.642,48.147,10.845,71.904c9.745-0.103,19.506,1.671,28.692,5.335c6.609-0.625,13.284-0.377,19.84,0.745
		C397.196,287.184,390.122,263.44,372.759,246.075z"/>
	<path style="fill:#E68CBE;" d="M387.37,315.856c-17.47,1.202-34.6,8.459-47.954,21.813c-11.517,11.518-18.495,25.846-20.973,40.777
		c8.089,11.989,12.813,26.435,12.813,41.986c0,4.214-0.364,8.341-1.03,12.367c2.655,3.933,5.709,7.677,9.19,11.158
		c3.753,3.753,7.808,7.019,12.082,9.812c17.469-1.202,34.6-8.459,47.954-21.813c29.35-29.35,29.35-76.937,0-106.288
		C395.699,321.916,391.644,318.65,387.37,315.856z"/>
</g>
<path style="fill:#A5DC69;" d="M432.314,234.352c0,0,16.606-8.55,35.038-26.974c3.723-5.717,7.228-11.968,10.33-18.774
	c-24.816-25.407-82.131-20.648-82.131-20.648s27.475-50.994,6.193-110.819c-77.984,0-119.048,64.109-119.048,64.109
	s-7.681-33.088-36.104-50.228c-16.029,15.011-24.056,32.229-28.005,46.974c17.445,1.208,34.546,8.459,47.882,21.797
	c17.943,17.943,24.891,42.695,20.894,65.934c0.032,0.157,0.06,0.314,0.092,0.471l17.848,19.268
	c23.675-4.574,49.12,2.281,67.454,20.615c19.79,19.79,26.215,47.867,19.317,73.058l0.293,0.316c2.454,1.907,4.829,3.964,7.084,6.219
	c3.7,3.7,6.93,7.691,9.698,11.898l0.006,0.007c0,0,28.494-0.003,54.452-10.177c0.161-0.13,0.324-0.256,0.483-0.387
	c-1.773-27.628-47.86-71.046-47.86-71.046s9.718-5.005,22.124-15.639C434.655,236.558,432.314,234.352,432.314,234.352z"/>
<path style="fill:#E68CBE;" d="M120.24,360.41c-13.902,2.858-27.152,9.665-37.939,20.451c-29.35,29.35-29.35,76.937,0,106.288
	c5.455,5.455,11.542,9.891,18.022,13.32c13.902-2.859,27.152-9.665,37.939-20.451c29.35-29.35,29.35-76.937,0-106.288
	C132.807,368.275,126.721,363.838,120.24,360.41z"/>
<path d="M98.173,446.52l-0.241,0.236c-3.955,3.855-4.035,10.187-0.18,14.143c1.96,2.011,4.559,3.02,7.162,3.02
	c2.516,0,5.035-0.944,6.979-2.839l0.452-0.447c3.897-3.913,3.884-10.245-0.03-14.143C108.402,442.592,102.07,442.606,98.173,446.52z
	"/>
<path d="M73.897,451.88c-3.168-1.154-5.998-2.963-8.41-5.375c-4.367-4.367-6.772-10.173-6.772-16.351
	c0-6.176,2.405-11.983,6.772-16.351c3.905-3.905,3.905-10.237,0-14.144c-3.905-3.904-10.237-3.904-14.143,0
	c-8.145,8.146-12.631,18.976-12.631,30.493c0,11.52,4.485,22.349,12.631,30.493c4.49,4.489,9.773,7.862,15.704,10.023
	c1.13,0.412,2.287,0.607,3.423,0.607c4.083,0,7.917-2.52,9.396-6.578C81.759,459.511,79.086,453.772,73.897,451.88z"/>
<path d="M113.974,146.478c10.895-10.895,28.622-10.895,39.518,0c1.953,1.952,4.512,2.929,7.071,2.929
	c2.559,0,5.119-0.977,7.071-2.929c3.905-3.905,3.905-10.237,0-14.144c-18.694-18.692-49.109-18.692-67.804,0
	c-3.905,3.905-3.905,10.237,0,14.144C103.736,150.383,110.069,150.383,113.974,146.478z"/>
<path d="M313.838,346.343c-3.905,3.905-3.905,10.237,0,14.144c3.905,3.904,10.237,3.904,14.144,0
	c10.104-10.104,26.548-10.106,36.654,0c1.953,1.952,4.512,2.929,7.071,2.929s5.119-0.977,7.071-2.929
	c3.905-3.905,3.905-10.237,0-14.144C360.874,328.441,331.743,328.439,313.838,346.343z"/>
<path d="M221.504,254.009c10.051-10.051,26.406-10.051,36.458,0c1.953,1.952,4.512,2.929,7.071,2.929s5.119-0.977,7.071-2.929
	c3.905-3.905,3.905-10.237,0-14.144c-17.85-17.849-46.893-17.849-64.742,0c-3.905,3.905-3.906,10.237,0,14.144
	C211.267,257.913,217.599,257.914,221.504,254.009z"/>
<path d="M123.566,282.127c1.953,1.952,4.512,2.929,7.071,2.929c2.559,0,5.118-0.977,7.071-2.929c3.905-3.905,3.906-10.236,0-14.144
	c-9.121-9.121-21.249-14.146-34.148-14.146s-25.027,5.023-34.149,14.146c-3.905,3.905-3.905,10.237,0,14.144
	c3.905,3.904,10.237,3.904,14.143,0c5.343-5.344,12.449-8.287,20.005-8.287C111.117,273.84,118.222,276.783,123.566,282.127z"/>
<path d="M177.28,375.849c-3.905,3.905-3.906,10.237,0,14.144c3.906,3.904,10.238,3.905,14.143,0
	c10.316-10.316,27.103-10.316,37.42,0c1.953,1.952,4.512,2.929,7.071,2.929c2.559,0,5.119-0.977,7.071-2.929
	c3.905-3.905,3.905-10.237,0-14.144C224.869,357.734,195.394,357.734,177.28,375.849z"/>
<path d="M509.153,384.546c-8.283-25.815-36.025-40.085-61.841-31.797c-6.787,2.177-12.624,5.955-17.229,10.783
	c-1.053-5.843-2.695-11.53-4.923-16.978c17.999-1.956,47.29-7.663,67.514-24.317c2.481-2.043,3.829-5.153,3.623-8.36
	c-1.704-26.557-31.955-61.15-47.934-77.679c15.889-10.857,44.56-34.578,62.388-73.701c1.712-3.757,0.939-8.181-1.946-11.134
	c-21.974-22.497-62.085-26.41-84.496-26.705c8.194-22.483,19.078-67.409,1.081-117.998c-1.418-3.986-5.191-6.648-9.422-6.648
	c-38.275,0-75.071,13.266-106.412,38.362c-10.505,8.413-18.758,16.824-24.727,23.639c-6.398-13.823-18.244-32.528-38.762-44.902
	c-3.832-2.311-8.732-1.795-12.001,1.265c-33.342,31.224-38.563,69.862-38.888,88.944c-0.413-0.43-0.81-0.871-1.232-1.294
	c-33.203-33.203-87.229-33.199-120.43,0c-16.084,16.085-24.941,37.47-24.941,60.216c0,21.412,7.853,41.613,22.19,57.326
	c-30.721,12.87-52.362,43.242-52.362,78.582c0,19.802,6.922,38.858,19.324,53.983c-4.526,3.034-8.829,6.536-12.825,10.531
	c-33.202,33.202-33.202,87.229,0,120.431c16.604,16.604,38.406,24.901,60.215,24.901c21.804,0,43.616-8.303,60.215-24.901l0,0
	c3.995-3.996,7.498-8.299,10.532-12.826c15.124,12.399,34.178,19.319,53.976,19.319c35.333,0,65.701-21.632,78.575-52.345
	c16.286,15.116,37.082,22.693,57.891,22.693c19.657,0,39.3-6.768,55.143-20.257c13.284,12.043,30.285,18.465,47.708,18.465
	c7.294,0,14.665-1.126,21.863-3.437c14.997-4.811,27.221-15.175,34.423-29.181C512.648,415.514,513.964,399.541,509.153,384.546z
	 M346.308,293.655c-8.543,0-16.894,1.25-24.844,3.663c6.284-20.77,4.471-43.474-5.419-63.127
	c18.285-0.984,36.443,5.755,49.642,18.955c13.192,13.192,19.928,31.334,18.956,49.606
	C372.898,296.818,359.849,293.655,346.308,293.655z M199.934,323.86c-2.121-1.653-4.132-3.409-5.985-5.262
	c-2.072-2.073-4.011-4.313-5.806-6.676c0.375-3.223,0.575-6.486,0.575-9.778c0-16.064-4.475-31.1-12.238-43.936
	c2.691-12.044,8.677-22.964,17.469-31.754c23.33-23.329,60.086-25.217,85.609-5.699c0.015,0.012,0.031,0.023,0.046,0.035
	c2.254,1.727,4.429,3.603,6.49,5.664s3.937,4.237,5.664,6.49c0.012,0.015,0.023,0.03,0.034,0.044
	c19.519,25.524,17.631,62.28-5.698,85.61c-8.729,8.729-19.563,14.695-31.51,17.413c-13.011-8.068-28.337-12.742-44.74-12.742
	C206.506,323.269,203.2,323.475,199.934,323.86z M259.398,146.859c13.201,13.2,19.937,31.358,18.954,49.641
	c-19.653-9.89-42.356-11.704-63.126-5.418c2.412-7.95,3.663-16.302,3.663-24.845c0-13.542-3.162-26.589-9.096-38.335
	C228.064,126.929,246.207,133.667,259.398,146.859z M242.147,38.627c22.767,17.608,29.685,45.697,29.752,45.98
	c0.908,3.911,4.073,6.892,8.028,7.582c3.954,0.688,7.945-1.062,10.124-4.435c0.111-0.172,11.322-17.348,32.554-34.209
	c26.035-20.675,54.992-31.881,86.178-33.367c17.876,59.347-8.341,109.626-8.608,110.128c-1.738,3.227-1.568,7.146,0.437,10.215
	c2.006,3.067,5.533,4.778,9.187,4.495c0.561-0.048,52.827-4.037,79.524,15.82c-22.795,44.063-61.199,64.421-61.586,64.622
	c-2.887,1.486-4.873,4.28-5.326,7.495c-0.454,3.215,0.682,6.449,3.045,8.675c17.48,16.469,44.797,48.087,50.036,68.491
	c-20.125,13.574-49.641,16.591-61.318,17.261c-2.336-3.069-4.878-6.01-7.652-8.784c-1.087-1.087-2.202-2.134-3.336-3.154
	c5.334-27.618-3.315-56.398-23.358-76.44c-6.685-6.684-14.343-12.099-22.604-16.154c21.952-19.233,50.344-30.048,79.843-30.048
	c5.523,0,10-4.478,10-10c0-5.522-4.477-10-10-10c-38.194,0-74.798,15.562-101.281,42.857c-10.579-2.048-21.575-2.099-32.394-0.011
	c-1.018-1.133-2.067-2.247-3.156-3.336s-2.203-2.138-3.336-3.156c1.58-8.183,1.938-16.467,1.129-24.597
	c10.089-29.022,26.028-54.889,47.42-76.888c3.85-3.96,3.761-10.291-0.198-14.142c-3.96-3.853-10.291-3.762-14.142,0.197
	c-17.373,17.867-31.455,38.064-42.091,60.261c-3.975-7.75-9.155-14.947-15.478-21.269c-15.683-15.682-36.714-24.387-58.352-24.881
	C215.434,93.47,219.054,63.877,242.147,38.627z M87.66,212.31c-12.307-12.307-19.084-28.668-19.084-46.072
	s6.777-33.767,19.084-46.072c25.403-25.405,66.74-25.405,92.145,0c1.999,1.999,3.835,4.114,5.537,6.314
	c0.092,0.122,0.185,0.243,0.282,0.361c8.598,11.277,13.265,24.975,13.265,39.398c0,17.402-6.775,33.762-19.079,46.067
	c-0.002,0.002-0.003,0.003-0.005,0.005s-0.004,0.004-0.006,0.006c-8.729,8.726-19.562,14.691-31.507,17.407
	c-13.01-8.064-28.332-12.737-44.732-12.737c-3.351,0-6.651,0.216-9.903,0.594C91.532,215.925,89.518,214.167,87.66,212.31z
	 M38.404,302.144c0-35.928,29.229-65.156,65.156-65.156s65.156,29.229,65.156,65.156c0,23.377-12.657,44.926-32.693,56.472
	c-23.263-17.372-53.444-21.304-79.849-11.807C44.826,334.764,38.404,318.803,38.404,302.144z M39.046,472.947
	c-25.404-25.404-25.404-66.74,0-92.145c12.704-12.704,29.385-19.054,46.073-19.054c15.442,0,30.881,5.454,43.166,16.335
	c0.026,0.022,0.052,0.045,0.078,0.067c0.961,0.854,1.908,1.731,2.829,2.652c25.404,25.404,25.404,66.74,0,92.145
	C105.785,498.352,64.449,498.35,39.046,472.947z M209.842,473.582c-16.657,0-32.616-6.419-44.659-17.764
	c9.499-26.406,5.563-56.592-11.812-79.856c11.546-20.036,33.095-32.693,56.472-32.693c35.928,0,65.156,29.229,65.156,65.156
	S245.77,473.582,209.842,473.582z M300.236,424.886c-2.075-2.076-4.017-4.32-5.815-6.688c0.369-3.209,0.578-6.466,0.578-9.772
	c0-16.061-4.473-31.093-12.233-43.927c2.69-12.046,8.677-22.966,17.47-31.757c12.307-12.308,28.668-19.084,46.072-19.084
	c14.428,0,28.13,4.67,39.409,13.274c0.109,0.09,0.221,0.176,0.335,0.262c2.205,1.705,4.325,3.545,6.328,5.548
	c12.307,12.307,19.084,28.668,19.084,46.071c0,17.404-6.777,33.767-19.084,46.072C366.976,450.288,325.64,450.289,300.236,424.886z
	 M487.659,420.374c-4.759,9.255-12.837,16.104-22.747,19.283c-17.451,5.598-36.281,1.516-49.822-10.625
	c3.711-5.059,6.812-10.48,9.295-16.169c3.299,5.201,7.929,9.456,13.552,12.348c8.33,4.283,17.831,5.066,26.75,2.203
	c7.644-2.452,13.876-7.734,17.547-14.875c3.671-7.139,4.342-15.281,1.889-22.926c-1.688-5.259-7.319-8.155-12.578-6.466
	c-5.259,1.687-8.154,7.318-6.467,12.578c0.821,2.557,0.596,5.28-0.632,7.668c-1.228,2.389-3.313,4.155-5.87,4.977
	c-3.832,1.229-7.914,0.894-11.495-0.947c-3.579-1.84-6.227-4.964-7.457-8.796c-3.594-11.202,2.595-23.239,13.797-26.834
	c15.315-4.908,31.772,3.549,36.686,18.863C493.287,400.565,492.418,411.119,487.659,420.374z"/>
<path d="M367.716,85.344c2.029,0,4.078-0.616,5.849-1.896l0.227-0.163c4.477-3.234,5.483-9.485,2.249-13.963
	c-3.235-4.477-9.486-5.484-13.963-2.249l-0.227,0.163c-4.477,3.234-5.483,9.485-2.249,13.963
	C361.558,83.905,364.615,85.344,367.716,85.344z"/>
<g>
</g>
<g>
</g>
<g>
</g>
<g>
</g>
<g>
</g>
<g>
</g>
<g>
</g>
<g>
</g>
<g>
</g>
<g>
</g>
<g>
</g>
<g>
</g>
<g>
</g>
<g>
</g>
<g>
</g>
</svg>
