<?xml version="1.0" encoding="iso-8859-1"?>
<!-- Generator: Adobe Illustrator 19.0.0, SVG Export Plug-In . SVG Version: 6.00 Build 0)  -->
<svg version="1.1" id="Capa_1" xmlns="http://www.w3.org/2000/svg" xmlns:xlink="http://www.w3.org/1999/xlink" x="0px" y="0px"
	 viewBox="0 0 512 512" style="enable-background:new 0 0 512 512;" xml:space="preserve">
<path style="fill:#46C373;" d="M330.967,154.743c0,0-0.881,21.276-10.7,57.577c32.147-7.505,60.128-2.684,60.128-2.684
	c15.755-20.724,31.315-50.942,35.649-92.183C377.804,121.416,350.176,137.426,330.967,154.743z"/>
<g>
	<path style="fill:#A5DC69;" d="M294.793,264.81c1.527,6.889,1.854,11.69,1.854,11.69s25.02-2.153,58.021,27.118
		c52.334-14.728,65.333,26.829,65.333,26.829c14.452-2.209,31.257-10.349,46.886-24.067c-17.128-2.968-37.112-14.695-60.674-38.257
		C370.828,232.739,318.738,252.597,294.793,264.81z"/>
	<path style="fill:#A5DC69;" d="M245.119,43.719c-15.425,16.608-24.45,34.811-26.64,50.245c0,0,40.883,16.187,31.868,69.951
		c18.986,7.098,27.083,22.462,26.034,52.446c4.15,0.322,7.978,0.963,11.488,1.806c12.244-24.491,30.776-75.356-3.976-110.108
		C258.632,82.798,246.96,61.644,245.119,43.719z"/>
</g>
<g>
	<path style="fill:#FF5A5A;" d="M275.969,238.48c-4.333-4.333-9.265-7.698-14.528-10.106c-5.737,2.434-11.116,5.978-15.793,10.655
		c-19.507,19.507-19.507,51.134,0,70.641c4.333,4.333,9.265,7.698,14.528,10.106c5.737-2.434,11.116-5.978,15.793-10.655
		C295.476,289.614,295.476,257.987,275.969,238.48z"/>
	<path style="fill:#FF5A5A;" d="M192.78,259.501c-13.328,1.098-27.008-3.131-37.586-12.692c-0.031,0.031-0.063,0.059-0.094,0.09
		c-19.507,19.507-19.507,51.134,0,70.641c6.242,6.242,13.728,10.477,21.658,12.724c4.702-2.344,9.115-5.462,13.035-9.382
		c4.966-4.966,8.662-10.719,11.098-16.856C191.036,291.096,188.324,274.464,192.78,259.501z"/>
	<path style="fill:#FF5A5A;" d="M269.397,361.114c-10.803-10.804-15.612-25.324-14.449-39.445
		c-8.639,2.573-17.831,2.734-26.549,0.532c-18.232,19.588-17.822,50.247,1.253,69.323c4.568,4.568,9.805,8.052,15.391,10.481
		c5.586-2.429,10.823-5.913,15.391-10.481c7.419-7.419,12.009-16.593,13.784-26.185
		C272.547,364.046,270.931,362.648,269.397,361.114z"/>
	<path style="fill:#FF5A5A;" d="M338.583,385.035c-1.63-1.63-3.118-3.348-4.473-5.134c-6.446-0.528-12.809-2.302-18.697-5.325
		c-3.035,0.663-6.12,1.044-9.212,1.136c-2.34,7.367-6.42,14.301-12.264,20.144c-5.731,5.731-12.511,9.764-19.719,12.128
		c1.919,9.181,6.43,17.928,13.557,25.056c3.777,3.777,8.012,6.814,12.521,9.128c9.02-1.97,17.603-6.448,24.616-13.461
		c11.816-11.816,16.461-28.075,13.96-43.396C338.778,385.217,338.678,385.13,338.583,385.035z"/>
	<path style="fill:#FF5A5A;" d="M157.414,126.587c-15.01,15.01-18.457,37.193-10.367,55.512c1.804-2.714,3.895-5.295,6.288-7.688
		c15.005-15.005,37.176-18.454,55.49-10.376c8.347-15.655,7.762-34.812-1.742-49.979
		C190.06,108.966,170.858,113.142,157.414,126.587z"/>
	<path style="fill:#FF5A5A;" d="M216.184,168.04c-8.36,2.153-16.273,6.491-22.819,13.037c-19.507,19.507-19.507,51.134,0,70.641
		c0.56,0.56,1.136,1.095,1.716,1.623c2.417-5.387,5.823-10.438,10.246-14.861c8.703-8.703,19.82-13.512,31.196-14.449
		c5.065-17.011,0.884-36.188-12.548-49.62C221.551,171.985,218.937,169.862,216.184,168.04z"/>
	<path style="fill:#FF5A5A;" d="M396.072,304.94c-4.453,0.962-8.801,2.535-12.907,4.725c8.078,18.315,4.628,40.486-10.376,55.49
		c-3.584,3.584-7.579,6.503-11.831,8.77c2.424,5.496,5.874,10.648,10.376,15.151c3.955,3.955,8.413,7.094,13.162,9.445
		c9.062-1.957,17.686-6.443,24.729-13.486c19.507-19.507,19.507-51.134,0-70.641C405.271,310.44,400.819,307.29,396.072,304.94z"/>
	<path style="fill:#FF5A5A;" d="M329.229,282.265c-1.344,0.282-2.682,0.6-4.004,0.993c-0.937,11.376-5.746,22.493-14.449,31.196
		c-6.075,6.075-13.327,10.257-21.021,12.548c-1.163,14.121,3.646,28.641,14.449,39.445c3.301,3.301,6.954,6.029,10.831,8.213
		c9.162-1.925,17.889-6.432,25.003-13.546c19.507-19.507,19.507-51.134,0-70.641C336.743,287.178,333.099,284.447,329.229,282.265z"
		/>
	<path style="fill:#FF5A5A;" d="M145.852,184.025c0.424-0.705,0.87-1.4,1.331-2.087C146.721,182.626,146.275,183.32,145.852,184.025
		z"/>
	<path style="fill:#FF5A5A;" d="M119.152,250.241c7.681-7.681,17.242-12.327,27.201-13.955
		c-9.779-15.548-10.144-35.293-1.134-51.171c-0.214,0.377-0.451,0.745-0.654,1.127c-1.097-0.484-2.177-1.021-3.244-1.587
		c-10.063,1.582-19.736,6.227-27.493,13.983c-17.877,17.877-19.358,45.927-4.469,65.505
		C111.74,259.117,114.993,254.4,119.152,250.241z"/>
	<path style="fill:#FF5A5A;" d="M177.945,339.736c-1.039-1.266-2.146-2.494-3.328-3.677s-2.411-2.289-3.677-3.328
		c-8.046,2.802-16.665,3.484-24.99,2.049c-1.075,0.907-2.13,1.849-3.143,2.862c-19.507,19.507-19.507,51.134,0,70.641
		c4.192,4.192,8.947,7.478,14.018,9.868c6.487-2.427,12.575-6.234,17.792-11.451c5.501-5.502,9.45-11.968,11.848-18.853
		C175.196,374.117,172.354,355.786,177.945,339.736z"/>
	<path style="fill:#FF5A5A;" d="M256.029,430.377c-0.595-0.541-1.182-1.095-1.756-1.67c-7.127-7.127-11.638-15.875-13.557-25.055
		c0.081-0.027,0.16-0.06,0.241-0.087c-8.622,2.877-17.87,3.34-26.692,1.391c-0.536,0.589-1.078,1.175-1.648,1.745
		c-4.758,4.758-10.24,8.346-16.088,10.783c-5.435,17.204-1.345,36.766,12.294,50.406c4.821,4.821,10.385,8.446,16.321,10.884
		c5.936-2.438,11.499-6.063,16.321-10.884C251.777,457.577,256.624,443.88,256.029,430.377z"/>
	<path style="fill:#FF5A5A;" d="M107.111,269.72c-0.027,0.081-0.06,0.16-0.086,0.241c-7.273-1.52-14.271-4.674-20.41-9.46
		c-2.272,1.61-4.444,3.425-6.48,5.46c-19.507,19.507-19.507,51.134,0,70.641c4.599,4.599,9.88,8.086,15.508,10.514
		c2.201-3.962,4.969-7.693,8.333-11.057c5.502-5.501,11.968-9.45,18.853-11.848c0.202,0.166,0.415,0.313,0.62,0.475
		c-1.483-1.177-2.925-2.432-4.296-3.804C105.311,307.042,101.309,287.105,107.111,269.72z"/>
	<path style="fill:#FF5A5A;" d="M165.913,486.046c4.154-4.154,7.415-8.86,9.799-13.879c-1.696-1.307-3.334-2.723-4.888-4.277
		c-13.332-13.332-17.514-32.316-12.622-49.233c-0.467-0.158-0.932-0.322-1.394-0.494c-9.723,3.633-20.346,4.123-30.314,1.487
		c-15.624,19.61-14.371,48.246,3.779,66.396c5.225,5.225,11.323,9.036,17.821,11.462C154.59,495.082,160.688,491.27,165.913,486.046
		z"/>
	<path style="fill:#FF5A5A;" d="M89.721,352.147c-11.412,3.605-23.852,2.993-34.921-1.79c-14.519,19.555-12.915,47.311,4.823,65.048
		c4.758,4.758,10.24,8.347,16.089,10.784c5.849-2.437,11.331-6.026,16.089-10.784c3.014-3.014,5.559-6.318,7.642-9.821
		C85.597,390.87,82.353,369.827,89.721,352.147z"/>
</g>
<path d="M508.469,251.901c-3.471-2.945-8.495-3.173-12.22-0.554c-7.977,5.608-32.251,22.676-83.886-28.961
	c-5.69-5.689-11.983-10.322-18.813-13.903c21.678-31.626,33.297-70.076,33.68-111.801c0.049-5.376-4.161-9.829-9.532-10.081
	c-42.931-2.01-81.531,9.817-112.282,34.265c-3.651-7.242-8.466-13.893-14.449-19.877c-3.905-3.905-10.237-3.905-14.143,0
	c-3.905,3.905-3.905,10.237,0,14.143c35.851,35.85,5.074,94.264-3.318,108.512c-5.08-3.343-10.615-5.865-16.441-7.514
	c17.028-20.822,19.052-52.324,2.919-77.689c-2.965-4.66-9.146-6.035-13.805-3.07c-4.66,2.964-6.035,9.145-3.071,13.805
	c9.39,14.763,10.226,32.341,3.674,46.078c-2.597-10.415-7.949-20.129-15.734-27.914c-2.923-2.923-6.099-5.5-9.472-7.726
	c7.139-21.332,1.716-45.295-14.449-61.461c-3.931-3.931-8.282-7.184-12.903-9.793c4.757-16.771,18.362-37.422,40.795-54.052
	c-0.389,5.03-0.099,10.192,0.875,15.474c1.001,5.431,6.213,9.022,11.647,8.022c5.431-1.001,9.023-6.215,8.022-11.647
	c-1.954-10.604,0.153-20.108,6.443-29.054c2.619-3.725,2.391-8.748-0.554-12.22c-2.945-3.472-7.864-4.518-11.967-2.54
	c-41.448,19.971-65.958,52.359-74.101,79.239c-18.674-3.344-38.637,2.17-53.04,16.572c-17.177,17.178-21.714,42.267-13.645,63.642
	c-12.645,1.834-24.559,7.657-33.799,16.896c-11.324,11.323-17.56,26.378-17.56,42.392c0,8.953,1.953,17.605,5.651,25.475
	c-10.224,2.667-19.685,7.995-27.273,15.583c-11.324,11.323-17.56,26.378-17.56,42.392c0,9.585,2.25,18.819,6.472,27.122
	c-2.497,1.823-4.863,3.832-7.068,6.038C6.236,349.015,0,364.07,0,380.084s6.236,31.068,17.559,42.392
	c0.492,0.492,0.999,0.958,1.503,1.429c-2.565,18.472,3.651,37.445,16.958,50.752c11.338,11.337,26.785,17.532,42.534,17.531
	c2.737,0,5.482-0.194,8.217-0.574c0.471,0.504,0.938,1.012,1.429,1.504c11.688,11.688,27.04,17.531,42.392,17.531
	s30.705-5.845,42.392-17.532c2.211-2.211,4.225-4.583,6.051-7.087c8.493,4.299,17.799,6.462,27.109,6.462
	c15.352,0,30.705-5.844,42.392-17.53c7.588-7.588,12.915-17.05,15.582-27.274c7.87,3.698,16.522,5.651,25.475,5.651
	c16.014,0,31.068-6.236,42.392-17.56c8.721-8.72,14.406-19.859,16.557-31.741c8.013,3.731,16.686,5.599,25.362,5.599
	c15.35,0,30.706-5.845,42.392-17.53c14.746-14.747,20.179-35.326,16.319-54.38c12.401-3.858,25.226-10.94,37.05-20.583
	c16.893-13.778,31.189-32.2,41.344-53.274C512.985,259.766,511.941,254.847,508.469,251.901z M406.917,106.377
	c-1.975,36.132-13.042,68.047-32.913,95.059c-15.319-3.319-32.546-2.467-51.245,2.668c-0.219,0.06-0.433,0.124-0.651,0.185
	l24.494-24.494c3.905-3.905,3.905-10.237,0-14.143s-10.237-3.905-14.143,0l-22.598,22.598c4.386-17.055,5.174-32.857,2.432-47.062
	C338.133,118.301,369.918,106.609,406.917,106.377z M344.668,325.794c0,10.671-4.156,20.703-11.702,28.249
	c-14.293,14.293-36.808,15.46-52.457,3.521c-0.004-0.004-0.009-0.007-0.013-0.01c-1.399-1.069-2.75-2.232-4.028-3.51
	c-6.855-6.855-10.912-15.883-11.583-25.425c6.589-2.904,12.764-7.035,18.154-12.425c8.335-8.335,13.902-18.696,16.266-29.969
	c12.272-1.677,24.744,2.403,33.662,11.321C340.513,305.09,344.668,315.122,344.668,325.794z M237.866,394.074
	c-0.162,0.048-0.321,0.102-0.479,0.158c-3.915,1.259-8.042,1.922-12.273,1.922c-10.671,0-20.704-4.156-28.25-11.702
	c-7.545-7.546-11.701-17.578-11.701-28.249s4.156-20.703,11.702-28.249c2.392-2.393,5.036-4.444,7.896-6.138
	c10.598,7.932,23.24,11.908,35.888,11.908c1.546,0,3.092-0.076,4.635-0.194c1.684,13.012,7.594,25.207,17.043,34.656
	c0.222,0.222,0.454,0.427,0.678,0.645c-1.944,5.86-5.21,11.192-9.641,15.623C248.932,388.885,243.639,392.136,237.866,394.074z
	 M167.545,399.629c-3.678,3.678-7.95,6.544-12.596,8.523c-0.174,0.067-0.344,0.142-0.514,0.219
	c-4.741,1.941-9.861,2.961-15.139,2.961c-10.29,0-19.979-3.875-27.425-10.917c-0.558-0.517-1.096-1.052-1.612-1.612
	c-7.041-7.445-10.914-17.134-10.914-27.423c0-5.287,1.023-10.415,2.97-15.164c0.07-0.156,0.139-0.311,0.201-0.471
	c1.979-4.653,4.848-8.932,8.531-12.615c3.094-3.094,6.59-5.601,10.425-7.509c9.969,6.577,21.483,9.865,33.001,9.863
	c3.978,0,7.954-0.401,11.868-1.186c-0.777,3.878-1.178,7.86-1.178,11.905c0,11.915,3.458,23.296,9.889,33.007
	C173.144,393.042,170.638,396.537,167.545,399.629C163.867,403.307,170.638,396.537,167.545,399.629z M146.264,252.123
	c9.383,9.382,21.638,15.319,34.657,17.024c-0.951,12.324,1.878,24.881,8.495,35.775c-1.795,3.242-4.028,6.223-6.694,8.889
	c-15.577,15.575-40.922,15.577-56.5,0c-7.545-7.546-11.701-17.578-11.701-28.249c0-4.216,0.659-8.329,1.909-12.232
	c0.069-0.194,0.137-0.39,0.195-0.59c1.941-5.745,5.184-11.014,9.598-15.427c4.514-4.514,9.941-7.823,15.922-9.749
	C143.433,249.14,144.804,250.664,146.264,252.123z M280.599,273.801c0,10.671-4.156,20.703-11.701,28.249l0,0
	c-15.282,15.286-39.965,15.563-55.603,0.851c-0.031-0.031-0.064-0.06-0.096-0.091c-0.267-0.253-0.538-0.499-0.8-0.76
	c-15.577-15.576-15.577-40.922,0-56.499c7.545-7.545,17.578-11.701,28.25-11.701c10.671,0,20.704,4.156,28.249,11.702
	C276.443,253.097,280.599,263.13,280.599,273.801z M228.219,215.145c-11.271,2.365-21.63,7.931-29.963,16.265
	c-5.39,5.39-9.521,11.564-12.425,18.153c-9.53-0.682-18.62-4.775-25.426-11.582c-2.105-2.105-3.937-4.411-5.498-6.863
	c-0.069-0.114-0.14-0.225-0.213-0.335c-3.897-6.26-5.991-13.493-5.991-21.05c0-10.671,4.156-20.704,11.702-28.25
	c7.545-7.545,17.578-11.701,28.249-11.701c10.671,0,20.704,4.156,28.25,11.702C225.74,190.317,229.87,202.881,228.219,215.145z
	 M136.484,112.295c15.577-15.577,40.923-15.577,56.499,0c10.342,10.342,14.085,25.471,10.161,39.241
	c-4.684-1.157-9.54-1.756-14.489-1.756c-16.013,0-31.068,6.236-42.391,17.559c-1.77,1.77-3.4,3.641-4.917,5.583
	c-1.721-1.244-3.351-2.617-4.862-4.128C120.908,153.218,120.908,127.872,136.484,112.295z M89.04,192.833
	c8.374-8.374,20.049-12.54,31.771-11.509c0.503,0.542,1.005,1.084,1.532,1.612c2.894,2.894,6.069,5.466,9.47,7.702
	c-2.034,6.075-3.108,12.5-3.108,19.094c0,6.987,1.188,13.79,3.467,20.182c-7.475,2.984-14.287,7.454-20.091,13.257
	c-4.347,4.347-7.936,9.247-10.718,14.537c-4.569-1.983-8.749-4.802-12.323-8.375c-0.457-0.457-0.901-0.925-1.333-1.4
	c-0.022-0.025-0.045-0.049-0.067-0.073c-6.657-7.354-10.301-16.785-10.301-26.776C77.338,210.411,81.494,200.379,89.04,192.833z
	 M49.858,276.283c7.011-7.011,16.419-11.128,26.269-11.624c5.553,5.248,12.001,9.349,19.031,12.135
	c-0.419,2.878-0.635,5.807-0.635,8.768c0,13.054,4.146,25.469,11.812,35.747c-3.363,2.219-6.521,4.77-9.429,7.679
	c-4.378,4.378-7.986,9.319-10.777,14.653c-13.099,2.693-26.684-1.275-36.27-10.86c-1.192-1.193-2.29-2.454-3.31-3.763
	c-0.059-0.08-0.122-0.156-0.184-0.235c-5.318-6.932-8.208-15.368-8.208-24.251C38.156,293.861,42.312,283.829,49.858,276.283z
	 M31.702,351.834c1.509-1.509,3.13-2.882,4.843-4.122c11.343,10.923,26.212,16.784,41.483,16.784c0.575,0,1.151-0.016,1.727-0.033
	c-0.26,2.281-0.408,4.587-0.408,6.917c0,12.579,3.863,24.557,11.001,34.608c-0.688,0.805-1.396,1.594-2.146,2.345
	c-14.198,14.2-36.508,15.45-52.143,3.764c-0.03-0.023-0.06-0.047-0.091-0.07c-1.485-1.117-2.914-2.343-4.265-3.694
	C24.156,400.787,20,390.755,20,380.084S24.156,359.381,31.702,351.834z M50.163,460.514c-6.722-6.722-10.683-15.327-11.533-24.419
	c6.853,2.597,14.085,3.912,21.322,3.912c3.993,0,7.985-0.405,11.914-1.195c-2.224,11.049-1.313,22.601,2.717,33.235
	C65.489,471.197,56.884,467.236,50.163,460.514z M102.343,478.974c-1.351-1.351-2.577-2.78-3.693-4.265
	c-0.023-0.031-0.047-0.061-0.071-0.091c-11.684-15.635-10.434-37.944,3.764-52.143c0.751-0.751,1.54-1.459,2.345-2.146
	c10.052,7.139,22.03,11.002,34.608,11.002c2.328,0,4.633-0.147,6.912-0.408c-0.458,15.871,5.415,31.446,16.75,43.215
	c-1.239,1.71-2.609,3.328-4.117,4.836C143.266,494.553,117.92,494.554,102.343,478.974z M181.776,464.215
	c-0.022-0.016-0.043-0.034-0.065-0.05c-1.323-1.025-2.603-2.133-3.817-3.347c-9.585-9.585-13.554-23.169-10.86-36.27
	c5.334-2.791,10.274-6.399,14.653-10.777c2.909-2.909,5.46-6.067,7.679-9.43c10.278,7.666,22.693,11.812,35.747,11.812
	c0.001,0,0,0,0,0c2.961,0,5.889-0.216,8.768-0.635c2.787,7.031,6.888,13.48,12.137,19.033c-0.492,9.845-4.615,19.256-11.625,26.266
	C220.051,475.16,197.431,476.285,181.776,464.215z M317.843,421.636c-7.546,7.546-17.578,11.702-28.25,11.702
	s-20.704-4.156-28.25-11.702c-3.573-3.573-6.392-7.754-8.375-12.323c5.29-2.782,10.19-6.372,14.537-10.719
	c5.302-5.302,9.504-11.463,12.47-18.203c7.841,3.542,16.29,5.324,24.742,5.324c6.451,0,12.898-1.045,19.077-3.109
	c1.665,2.537,3.517,4.947,5.557,7.212C330.395,401.552,326.213,413.267,317.843,421.636z M402.154,377.964
	c-15.493,15.492-40.644,15.569-56.24,0.246c-0.002-0.002-0.003-0.004-0.005-0.006c-0.088-0.087-0.182-0.176-0.281-0.269
	c-1.504-1.507-2.871-3.126-4.106-4.836c1.936-1.508,3.809-3.135,5.587-4.914c11.324-11.323,17.56-26.378,17.56-42.392
	c0-4.952-0.6-9.811-1.758-14.498c13.772-3.96,28.814-0.261,39.243,10.168C417.73,337.042,417.73,362.388,402.154,377.964z
	 M425.41,319.033c-2.488-4.178-5.523-8.119-9.115-11.711c-16.3-16.299-40.113-21.641-61.461-14.449
	c-2.225-3.373-4.802-6.549-7.726-9.472c-10.852-10.851-25.208-16.938-40.064-17.514c7.662-4.348,16.216-6.579,24.875-6.378
	c11.802,0.283,22.386,5.083,29.801,13.514c1.977,2.247,4.738,3.396,7.513,3.396c2.346,0,4.701-0.82,6.601-2.491
	c4.147-3.647,4.552-9.966,0.904-14.113c-11.145-12.671-26.892-19.88-44.339-20.299c-12.975-0.313-25.727,3.181-36.937,9.969
	c-1.516-3.415-3.356-6.689-5.506-9.784c14.667-8.596,72.619-38.817,108.264-3.172c29.711,29.711,56.788,43.702,80.874,41.841
	C462.666,300.697,442.413,314.182,425.41,319.033z"/>
<path d="M252.785,68.726c-4.646,2.986-5.991,9.173-3.004,13.819l0.212,0.328c1.916,2.949,5.122,4.553,8.395,4.553
	c1.867,0,3.757-0.522,5.439-1.616c4.631-3.009,5.946-9.203,2.937-13.833l-0.16-0.247C263.617,67.084,257.43,65.739,252.785,68.726z"
	/>
<path d="M364.69,157.563c2.63,0,5.21-1.07,7.07-2.93c1.86-1.86,2.93-4.44,2.93-7.07s-1.07-5.21-2.93-7.07s-4.44-2.93-7.07-2.93
	s-5.21,1.07-7.07,2.93c-1.86,1.86-2.93,4.44-2.93,7.07s1.07,5.21,2.93,7.07C359.48,156.494,362.06,157.563,364.69,157.563z"/>
<g>
</g>
<g>
</g>
<g>
</g>
<g>
</g>
<g>
</g>
<g>
</g>
<g>
</g>
<g>
</g>
<g>
</g>
<g>
</g>
<g>
</g>
<g>
</g>
<g>
</g>
<g>
</g>
<g>
</g>
</svg>
